# xmcd CD database file
#
# Track frame offsets:
#	150
#	7880
#	20820
#	38813
#	58924
#	73505
#	81623
#	95849
#	109774
#	136352
#	154407
#	169995
#	188121
#	202645
#	221045
#	246573
#	263987
#	275736
#	297320
#
# Disc length: 4135 seconds
#
# Revision: 1
# Processed by: cddbd v1.5.2PL0 Copyright (c) Steve Scherf et al.
# Submitted via: jetAudio 5
#
DISCID=2d102513
DTITLE=TRABELSI Michel - SWING 98
DYEAR=1900
DGENRE=Jazz
TTITLE0=Plage 01
TTITLE1=Plage 02
TTITLE2=Plage 03
TTITLE3=Plage 04
TTITLE4=Plage 05
TTITLE5=Plage 06
TTITLE6=Plage 07
TTITLE7=Plage 08
TTITLE8=Plage 09
TTITLE9=Plage 10
TTITLE10=Plage 11
TTITLE11=Plage 12
TTITLE12=Plage 13
TTITLE13=Plage 14
TTITLE14=Plage 15
TTITLE15=Plage 16
TTITLE16=Plage 17
TTITLE17=Plage 18
TTITLE18=Plage 19
EXTD=
EXTT0=
EXTT1=
EXTT2=
EXTT3=
EXTT4=
EXTT5=
EXTT6=
EXTT7=
EXTT8=
EXTT9=
EXTT10=
EXTT11=
EXTT12=
EXTT13=
EXTT14=
EXTT15=
EXTT16=
EXTT17=
EXTT18=
PLAYORDER=
